# xmcd
# 
# Track frame offsets:
#     182
#     21267
#     42037
#     60147
#     77310
#     96960
#     112425
#     132030
#     154165
#     170290
# 
# Disc length: 2607
# 
# Revision: 3
# Processed by: cddbd v1.5.2PL0 Copyright (c) Steve Scherf et al.
# Submitted via: BonkEnc v1.0.6
# 
DISCID=710a2d0a
DTITLE=Y and T - In Rock We Trust
DYEAR=1984
DGENRE=Hard Rock
TTITLE0=Rock and Roll's Gonna Save The World
TTITLE1=Life, Life, Life
TTITLE2=Masters And Slaves
TTITLE3=I'll Keep On Believin' (Do You Know)
TTITLE4=Break Out Tonight
TTITLE5=Lipstick And Leather
TTITLE6=Don't Stop Runnin'
TTITLE7=(Your Love Is) Drivin' Me Crazy
TTITLE8=She's A Liar
TTITLE9=This Time
EXTD=YEAR: 1984
EXTT0=
EXTT1=
EXTT2=
EXTT3=
EXTT4=
EXTT5=
EXTT6=
EXTT7=
EXTT8=
EXTT9=
PLAYORDER=
